<?xml version="1.0" encoding="UTF-8"?>
<svg id="Layer_1" data-name="Layer 1" xmlns="http://www.w3.org/2000/svg" viewBox="0 0 100.89 280.54">
  <defs>
    <style>
      .cls-1 {
        fill: #3a4c36;
      }
    </style>
  </defs>
  <path class="cls-1" d="M100.78,152.32c0,29.86-.21,59.72,.11,89.58,.12,10.81-5.36,15.37-14.63,14.64-2.86-.23-5.75,.05-8.62-.06-1.9-.07-2.71,.54-2.62,2.54,.13,2.74,.06,5.5,.02,8.24-.11,8.05-5.11,13.15-13.08,13.22-7.75,.07-15.49,.08-23.24,0-7.56-.08-12.7-5.06-13.05-12.6-.13-2.87-.13-5.75,0-8.62,.1-2.06-.53-2.9-2.71-2.81-3.62,.16-7.25,.07-10.87,.03-7.66-.09-12.06-4.46-12.08-12.17-.05-18.24-.02-36.48-.02-54.72,0-42.6,0-85.21,0-127.81,0-1.5-.06-3.02,.15-4.49,.98-6.73,6.42-11.69,13.26-12.16,1.24-.09,2.5-.04,3.75-.04q6.01,0,6.01-6.19c0-6.25,.29-12.51-.06-18.74C22.46,8.43,31.72-.56,43.17,.03c5.11,.26,10.24,0,15.37,.05,10.94,.11,18.61,7.6,18.86,18.56,.15,6.49,.04,12.99,.04,19.49q0,6.96,6.78,6.97c1,0,2-.02,3,.04,7.4,.45,12.83,5.72,13.46,13.1,.13,1.49,.1,3,.11,4.49,0,29.86,0,59.72,0,89.58Zm-64.86,24.09c0,11.24-.01,22.48,0,33.71,0,3.08,.05,3.13,3.04,3.14,7.24,.03,14.48,.02,21.73,0,3.78,0,3.79-.02,3.8-3.9,0-18.86-.24-37.72,.12-56.56,.15-7.91-.88-15.34-4.31-22.45-1.49-3.09-1.98-6.34-1.92-9.79,.14-8.74,.06-17.48,.04-26.22,0-3.03-.06-3.07-3.15-3.11-3.37-.04-6.74-.04-10.11,0-3.09,.04-3.14,.07-3.15,3.1-.03,5.87-.33,11.76,.06,17.6,.62,9.18-.77,17.86-4.86,26.1-1.09,2.19-1.32,4.48-1.3,6.89,.06,10.49,.03,20.98,.03,31.47Zm-25.63-24.26c0,8.37,0,16.73,0,25.1,0,10.87,0,21.73,0,32.6,0,3.54,.03,3.55,3.42,3.59,2.62,.03,5.25,.01,7.87,0,4.56,0,3.9-.06,3.9-3.8,.02-18.98,.28-37.97-.11-56.95-.19-9.05,.9-17.59,4.88-25.74,.82-1.67,1.36-3.43,1.35-5.39-.07-9.12-.09-18.23,.02-27.35,.03-2.24-.57-3.11-2.92-3.03-4.87,.15-9.74,.03-14.61,.05-3.76,.01-3.78,.03-3.78,3.96,0,18.98,0,37.97,0,56.95Zm79.83,.13c0-1.62,0-3.25,0-4.87,0-17.61,0-35.22,0-52.83,0-3.29-.05-3.32-3.27-3.34-4.87-.03-9.74-.03-14.61,0-3.35,.02-3.37,.05-3.38,3.6-.02,5.37,.3,10.76-.07,16.11-.59,8.54,.77,16.61,4.57,24.28,1.36,2.74,1.64,5.67,1.62,8.72-.09,11.36-.04,22.73-.03,34.09,0,10.86,.04,21.73-.04,32.59-.02,2.04,.5,2.96,2.69,2.85,2.87-.14,5.74-.02,8.62-.03,3.9-.02,3.92-.03,3.92-3.84,0-19.11,0-38.21,0-57.32ZM50,80.95c12.24,0,24.49,.01,36.73,0,3.32,0,3.36-.04,3.38-3.25,.03-5.62,.04-11.24,0-16.87-.03-4.19-1.09-5.19-5.4-5.23-3.75-.03-7.5,0-11.24,0-18.99,0-37.98,0-56.97,0-5.48,0-6.19,.73-6.2,6.32,0,5.12-.02,10.25,0,15.37,.01,3.64,.03,3.66,3.72,3.66,11.99,.01,23.99,0,35.98,0Zm.19,165.19c12.11,0,24.21,0,36.32,0,3.59,0,3.6-.03,3.61-3.72,.01-4.99,.02-9.98,0-14.98-.01-3.6-.03-3.63-3.76-3.63-12.48-.01-24.96,0-37.44,0-11.36,0-22.71,0-34.07,0-4.99,0-4.54-.26-4.55,4.35-.01,4.62,0,9.23,0,13.85,0,4.12,.01,4.13,3.95,4.13,11.98,0,23.96,0,35.94,0Zm.03-201.09c4.86,0,9.72-.02,14.58,.01,1.41,.01,2.43-.19,2.42-1.97-.06-8.35,.13-16.71-.15-25.05-.16-4.72-3.35-7.47-8.08-7.56-5.73-.11-11.47-.11-17.2-.01-5.13,.08-8.2,3.01-8.29,8.11-.14,7.98,0,15.96-.08,23.93-.02,1.92,.63,2.62,2.59,2.57,4.73-.11,9.47-.04,14.21-.04Zm.36,211.51c-4.11,0-8.23,.07-12.33-.03-1.8-.04-2.41,.62-2.35,2.38,.1,2.74,.06,5.48,.02,8.22-.03,2,.84,3.01,2.89,3,7.6-.02,15.2-.02,22.8,0,2.05,0,2.92-1,2.89-3-.04-2.74-.08-5.49,.02-8.22,.07-1.76-.55-2.43-2.35-2.38-3.86,.1-7.72,.03-11.59,.03Z"/>
</svg>