<?xml version="1.0" encoding="UTF-8"?>
<svg id="Layer_1" data-name="Layer 1" xmlns="http://www.w3.org/2000/svg" viewBox="0 0 367.39 384">
  <defs>
    <style>
      .cls-1 {
        fill: #3a4c36;
      }
    </style>
  </defs>
  <path class="cls-1" d="M191.14,0c.81,.29,1.61,.64,2.44,.86,10.11,2.61,16.95,11.3,16.95,21.58,0,10.26-6.84,19.18-16.95,21.52-2.7,.62-3.34,1.7-3.33,4.25,.13,27.99-.13,55.99,.31,83.98,.29,18.44,6.03,35.34,17.24,50.16,18.09,23.92,36.26,47.77,54.41,71.63,.73,.95,1.68,1.74,2.52,2.6,.23-1.26,.67-2.52,.67-3.78,.03-58.99,.01-117.97,.08-176.96,0-2.79-.5-4.39-3.49-5.5-9.35-3.47-14.83-13.21-13.66-23.44,1.17-10.21,8.74-17.97,18.9-19.34,.99-.13,1.99-.25,2.98-.26,24.99-.01,49.99-.1,74.98,.03,11.22,.06,19.21,6.77,21.64,17.6,2.39,10.66-3.28,21.67-13.51,25.49-2.68,1-3.26,2.38-3.25,4.92,.08,16.25,.04,32.49,.04,48.74,0,1.25,.05,2.51-.09,3.74-.31,2.67-2.4,4.62-4.95,4.76-2.69,.15-5.04-1.76-5.44-4.61-.21-1.47-.18-2.99-.18-4.49-.01-15.75,0-31.49-.02-47.24,0-4.35-.04-4.36-4.29-4.36-18.37,0-36.74,0-55.11,0-3.74,0-3.78,.03-3.82,3.66-.04,4,.1,8-.05,12-.09,2.52,.65,3.58,3.36,3.45,4.36-.2,8.75-.06,13.12-.05,1,0,2.01-.04,2.99,.12,3.13,.52,5.02,2.73,4.89,5.64-.13,2.87-2.21,5.03-5.39,5.11-5,.14-10,.04-15,.05-3.88,.01-3.91,.03-3.93,3.9-.03,4.12,.06,8.25-.02,12.37-.04,2.05,.66,2.89,2.81,2.83,4.62-.12,9.25-.04,13.87-.03,1,0,2.02-.04,2.99,.14,3.08,.58,4.9,2.92,4.66,5.83-.22,2.71-2.24,4.8-5.23,4.88-5.12,.15-10.25,.04-15.37,.06-3.64,.02-3.68,.04-3.71,3.75-.04,4.12,.08,8.25-.03,12.37-.06,2.23,.67,3.12,3.01,3.04,4.37-.16,8.75-.04,13.12-.04,.87,0,1.75-.04,2.62,.03,3.59,.32,5.76,2.56,5.59,5.74-.16,3-2.34,5.02-5.81,5.09-4.87,.1-9.75,.02-14.62,.04-3.83,.02-3.86,.03-3.88,3.97-.03,5.12,.03,10.25,0,15.37-.01,1.86,.33,2.61,2.59,2.12,11.82-2.57,22.89-1.02,33.44,5.45,7.4,4.54,15.69,4.26,23.95,1.94,2.49-.7,3.31-2.04,3.29-4.56-.11-10-.05-19.99-.03-29.99,0-1.37-.01-2.77,.23-4.11,.48-2.72,2.59-4.32,5.33-4.22,2.65,.1,4.68,1.92,5.02,4.62,.13,.99,.09,2,.09,3,0,61.73,.05,123.47-.03,185.2-.03,17.94-8.41,30.98-24.37,38.99-3.4,1.7-7.32,2.36-11,3.49-.94,.29-1.88,.57-2.82,.85h-8.25c-.57-.24-1.11-.62-1.7-.7-8.39-1.1-15.73-4.53-22.03-10.12-1.58-1.4-2.59-1.18-4.08,.05-5.86,4.87-12.64,7.82-20.11,9.26-2.29,.44-4.55,1-6.83,1.5H44.89c-1.93-.4-3.86-.8-5.8-1.19-20.38-4.03-33.89-17.48-37.55-38.24-4.82-27.41,1.77-52.36,17.97-74.69,10.56-14.56,21.84-28.59,32.8-42.86,.38-.5,.74-1.01,1.17-1.46,2.16-2.27,5.13-2.63,7.4-.91,2.23,1.68,2.84,4.83,1.1,7.38-2.03,2.99-4.34,5.8-6.54,8.68-.98,1.29-2,2.56-2.95,3.88-.27,.38-.38,.88-.56,1.32,.57,.06,1.15,.2,1.71,.16,.48-.04,.95-.3,1.42-.44,16.75-5.05,33.84-7.72,51.35-6.93,16.21,.73,31.65,4.3,45.36,13.47,1.91,1.28,3.3,.98,5.1,.05,9.99-5.16,20.15-9.9,30.98-13.1,15.08-4.47,30.2-5.07,45.45-.99,.8,.21,1.67,.19,2.51,.27-.33-.84-.5-1.8-1.02-2.5-11.83-15.65-23.75-31.22-35.55-46.9-13.04-17.33-19.6-36.96-19.77-58.58-.2-27.12-.05-54.24-.05-81.36,0-4.26-.02-4.27-4.29-4.28-18.87,0-37.74,0-56.61,0-4.42,0-4.43,.01-4.47,4.58-.03,3.5-.05,7-.04,10.5,.02,3.98,.04,4,3.89,4.02,4.75,.02,9.5-.03,14.25,.02,3.96,.05,6.31,2.07,6.35,5.32,.04,3.26-2.27,5.43-6.22,5.52-4.75,.11-9.5,.02-14.25,.04-4.04,.02-4.05,.03-4.09,4.21-.03,3.62-.04,7.25-.03,10.87,.02,3.98,.04,4,3.89,4.02,4.75,.02,9.5-.03,14.25,.02,4.01,.04,6.35,1.99,6.44,5.23,.1,3.4-2.29,5.55-6.5,5.63-4.75,.09-9.5,0-14.25,.03-3.83,.02-3.85,.04-3.88,4.02-.03,3.62-.03,7.25-.02,10.87,.01,4.18,.02,4.19,4.06,4.21,4.75,.02,9.5-.03,14.25,.02,3.96,.04,6.3,2.07,6.34,5.33,.04,3.26-2.28,5.43-6.23,5.52-5.12,.11-10.25,.1-15.37,0-2.1-.04-3.01,.46-3.24,2.85-1.87,19.57-8.21,37.44-20.46,53.04-5.01,6.39-9.81,12.95-14.78,19.36-.89,1.15-2.05,2.19-3.3,2.93-1.96,1.17-3.93,.55-5.52-.88-1.59-1.42-2.38-3.28-1.55-5.39,.49-1.25,1.24-2.44,2.06-3.53,5.48-7.29,11.14-14.45,16.5-21.82,10.58-14.54,16.39-30.93,16.66-48.85,.41-27.99,.09-55.99,.15-83.98,0-2.62-.56-3.87-3.48-4.54-10.1-2.32-16.82-11.25-16.79-21.6,.04-10.34,6.85-18.94,17.01-21.48,.84-.21,1.64-.56,2.46-.84,29.5,0,59,0,88.5,0Zm-44.56,372.9c13.99,0,27.99,0,41.98,0,18.99,0,37.98,.07,56.98-.07,8.57-.06,16.5-2.42,23.36-7.83,1.51-1.19,2.35-2.24,1.21-4.35-3.57-6.63-4.75-13.8-4.7-21.32,.13-19.74,0-39.48,.09-59.22,.01-2.8-.71-5.02-2.45-7.18-3.52-4.38-6.8-8.95-10.27-13.38-.9-1.15-1.97-2.33-3.22-3.02-17.76-9.84-36.39-13.28-56.3-7.71-13.32,3.73-25.52,9.97-37.73,16.26-15.31,7.88-30.51,16.02-46.11,23.27-21.72,10.09-44.54,16.89-68.37,19.89-8.29,1.05-16.64,1.58-24.98,2.23-2.12,.16-3.34,.58-3.77,3.05-1.85,10.57-2.32,21.13,.4,31.58,3.34,12.81,10.7,22.3,23.89,25.95,4.62,1.28,9.6,1.76,14.42,1.78,31.86,.15,63.72,.08,95.58,.08Zm129.62-101.55c0,9.62-.02,19.24,0,28.86,.04,14.37-.2,28.74,.25,43.09,.43,13.7,10.33,25.35,23.48,28.66,13.3,3.35,27.17-2.21,34.52-13.73,3.85-6.03,5-12.67,4.99-19.66-.02-32.23,0-64.46,0-96.7,0-12.37,.02-24.74-.03-37.1-.01-3.37-.18-3.44-3.42-2.75-11.23,2.37-21.75,.89-31.67-5.17-7.32-4.48-15.32-4.89-23.5-2.79-4.62,1.19-4.62,1.26-4.62,6.08,0,23.74,0,47.47,0,71.21Zm-172.26-21.93c-22.19,.23-39.57,3.64-55.86,10.03-6.88,2.7-13.13,6.03-16.88,12.8-.6,1.08-1.48,2.01-2.26,2.98-5.11,6.4-8.9,13.55-11.83,21.17-1.19,3.1-1.09,3.35,2.06,3.06,8.94-.84,17.92-1.48,26.78-2.85,25.52-3.93,49.43-12.82,72.43-24.31,7.37-3.68,14.64-7.55,21.92-11.41,2.47-1.31,2.42-1.64-.04-3.01-.87-.48-1.77-.92-2.69-1.32-11.85-5.28-24.33-7.26-33.63-7.14ZM146.74,11.1c-.62,0-1.25,0-1.87,0-13.11,0-26.22-.06-39.33,.03-7.66,.05-12.86,6.54-11.29,13.82,1.18,5.47,5.81,8.91,12.2,8.91,24.72,.02,49.44,.01,74.16,0,2.75,0,5.5,.11,8.24-.05,6.44-.38,11.06-5.61,10.78-12.01-.28-6.14-5.11-10.66-11.68-10.69-13.73-.06-27.47-.02-41.2-.02Zm160.65,49.88c12.62,0,25.23-.04,37.85,.02,4.1,.02,7.33-1.43,9.44-4.96,2.35-3.94,2.46-8.09,.37-12.15-2.08-4.06-5.59-5.76-10.13-5.76-24.73,.04-49.46,.01-74.19,.04-1.24,0-2.52,.07-3.7,.4-5.41,1.48-8.5,6.68-7.77,12.89,.65,5.58,4.89,9.46,10.66,9.5,12.49,.07,24.98,.02,37.47,.03Z"/>
  <path class="cls-1" d="M126.68,194c.03-11.3,8.9-20.06,20.26-20.02,11.28,.04,20.13,8.97,20.09,20.24-.04,11.14-9.15,20.18-20.31,20.14-11.16-.04-20.07-9.1-20.04-20.36Zm29.45-.04c-.05-5.13-4.17-9.24-9.26-9.26-5.22-.02-9.46,4.29-9.38,9.54,.08,5.16,4.12,9.16,9.29,9.18,5.35,.02,9.4-4.09,9.35-9.46Z"/>
  <path class="cls-1" d="M233.25,323.28c.01,15.57-12.43,28.17-27.93,28.27-15.52,.1-28.35-12.76-28.3-28.38,.05-15.42,12.84-28.15,28.21-28.07,15.53,.08,28.01,12.62,28.02,28.18Zm-45.32-.13c-.05,9.72,7.56,17.47,17.19,17.49,9.59,.02,17.5-7.82,17.49-17.34-.01-9.31-7.81-17.21-17.15-17.36-9.56-.16-17.47,7.61-17.52,17.21Z"/>
  <path class="cls-1" d="M95.93,336.18c-.05,10.73-8.66,19.27-19.34,19.17-10.64-.1-19.04-8.78-18.95-19.57,.09-10.49,8.69-19.03,19.15-19.03,10.62,0,19.18,8.7,19.13,19.42Zm-19.08,8.23c4.61-.03,8.34-3.73,8.37-8.31,.03-4.49-3.77-8.36-8.29-8.44-4.65-.08-8.64,3.91-8.54,8.56,.1,4.59,3.85,8.22,8.46,8.19Z"/>
  <path class="cls-1" d="M169.56,291.34c0,2.98-2.5,5.52-5.39,5.48-2.93-.04-5.3-2.59-5.21-5.61,.08-2.82,2.42-5.2,5.19-5.28,2.95-.09,5.42,2.38,5.42,5.41Z"/>
  <path class="cls-1" d="M118.41,314.82c-2.93,.07-5.38-2.42-5.36-5.45,.02-2.85,2.26-5.27,5.03-5.44,2.92-.17,5.46,2.25,5.53,5.26,.07,3.03-2.28,5.56-5.21,5.63Z"/>
  <path class="cls-1" d="M289.22,246.22c.23-10.54,8.52-18.38,19.22-18.17,10.05,.2,18.04,8.56,17.93,18.74-.12,10.41-8.8,18.84-19.06,18.5-10.26-.33-18.31-8.82-18.09-19.08Zm10.7,.19c-.13,4.17,3.51,7.91,7.76,7.96,4.13,.05,7.69-3.26,7.95-7.39,.26-4.2-3.25-7.97-7.55-8.11-4.33-.14-8.02,3.26-8.15,7.54Z"/>
  <path class="cls-1" d="M311.24,332.07c3.01,.05,5.13,2.2,5.16,5.22,.02,3.15-2.26,5.42-5.39,5.38-2.99-.04-5.13-2.2-5.16-5.21-.03-3.16,2.26-5.45,5.39-5.4Z"/>
  <path class="cls-1" d="M299.1,288.96c2.93-.04,5.34,2.46,5.31,5.49-.03,2.89-2.24,5.24-5.06,5.38-2.97,.15-5.44-2.23-5.49-5.28-.05-3.03,2.31-5.55,5.24-5.59Z"/>
</svg>