<?xml version="1.0" encoding="UTF-8"?>
<svg id="Layer_1" data-name="Layer 1" xmlns="http://www.w3.org/2000/svg" viewBox="0 0 100 50">
  <path d="M6.48,37.75l2.35-4.15c.4-.65,1.35-.55,1.7-.3,.2,.1,3.8,2.75,7.1,2.75,2,0,3.45-1.25,3.45-3,0-2.1-1.75-3.7-5.15-5.05-4.3-1.7-9.7-5.05-9.7-11.05,0-4.95,3.85-9.95,11.55-9.95,5.2,0,9.2,2.65,10.7,3.75,.6,.35,.5,1.25,.3,1.6l-2.55,3.85c-.35,.55-1.25,1-1.7,.65-.45-.25-4.1-3-7.15-3-1.8,0-3.15,1.2-3.15,2.55,0,1.85,1.5,3.25,5.45,4.85,3.9,1.55,10.1,4.6,10.1,11.4,0,5.15-4.45,10.35-11.8,10.35-6.5,0-10.1-2.7-11.25-3.85-.5-.5-.65-.7-.25-1.4Z"/>
  <path d="M35.88,8.45c0-.5,.4-.95,.95-.95h11.65c5.9,0,10.75,4.05,10.75,9.3,0,3.85-3.45,6.65-5.8,7.9,2.65,1.1,6.7,3.55,6.7,8.15,0,5.6-4.95,9.65-10.9,9.65h-12.4c-.55,0-.95-.45-.95-.95V8.45Zm11.7,13.25c1.9,0,3.5-1.6,3.5-3.6s-1.6-3.4-3.5-3.4h-3.9v7h3.9Zm.65,13.65c1.95,0,3.6-1.6,3.6-3.65s-2.15-3.5-4.1-3.5h-4.05v7.15h4.55Z"/>
  <path d="M81.98,7c5,0,8.7,1.55,12.1,4.65,.45,.4,.45,1,.05,1.4l-3.9,4.05c-.35,.35-.9,.35-1.25,0-1.85-1.65-4.3-2.55-6.75-2.55-5.65,0-9.8,4.7-9.8,10.3s4.2,10.15,9.85,10.15c2.35,0,4.9-.85,6.7-2.4,.35-.3,1-.3,1.3,.05l3.9,4.15c.35,.35,.3,1-.05,1.35-3.4,3.3-7.7,4.85-12.15,4.85-10,0-18.05-7.95-18.05-17.95s8.05-18.05,18.05-18.05Z"/>
</svg>