<?xml version="1.0" encoding="UTF-8"?>
<svg id="Layer_1" data-name="Layer 1" xmlns="http://www.w3.org/2000/svg" viewBox="0 0 367.84 408.78">
  <defs>
    <style>
      .cls-1 {
        fill: #3a4c36;
      }
    </style>
  </defs>
  <path class="cls-1" d="M321.24,408.78H56.95c-.55-.73-1.39-.67-2.17-.8-7.75-1.25-14.85-4.14-21.13-8.83-14.35-10.73-20.92-25.17-20.89-43.05,.12-66.39,.08-132.78,.01-199.17-.01-11.2,2.33-21.63,8.81-30.9,1.21-1.73,1.24-2.86-.52-4.29-7.2-5.82-12.95-12.97-18.3-20.46-4.65-6.52-3.5-11.18,3.7-14.69,.84-.41,1.68-.79,2.52-1.19,10.07-4.82,20.14-9.62,30.19-14.47,2.46-1.18,2.5-1.32,.7-3.3-4.1-4.49-6.63-9.71-6.77-15.78-.21-8.91-.25-17.83,0-26.74,.21-7.44,3.64-13.48,9.3-18.28C48.41,1.73,55.48,0,63.16,0c83.95,.01,167.91,0,251.86,.02,1.46,0,2.93,.06,4.38,.19,14.17,1.25,26.21,12.04,25.76,28.62-.17,6.12,0,12.24-.04,18.36-.02,2.26-.01,4.54-.34,6.76-1.07,7.2-4.69,12.92-10.54,17.2-1.66,1.21-1.54,1.89,.29,2.6,.86,.34,1.67,.82,2.51,1.22,8.39,4.02,16.81,7.96,25.16,12.06,6.09,2.99,7.32,7.88,3.44,13.4-3.29,4.68-6.75,9.24-10.65,13.44-1.35,1.46-3.42,2.77-3.81,4.46-.44,1.89,2.23,2.98,3.25,4.64,.14,.23,.31,.43,.47,.64,7.28,9.57,10.41,20.4,10.39,32.39-.09,52.42-.04,104.84-.04,157.26,0,15.03-.07,30.07,0,45.1,.12,23.2-16.15,43.99-39.49,49.23-1.5,.34-3.26-.13-4.5,1.19ZM188.69,187.75c-41.92,0-83.83,0-125.75,0-4.01,0-4.01,.03-4.06,3.85,0,.4,0,.8,0,1.2,0,53.89,0,107.79,0,161.68,0,7.51,.56,8.05,8.25,8.05,81.17,0,162.35,0,243.52,0,8.1,0,8.39-.28,8.39-8.21,0-53.63,0-107.26,0-160.88,0-.93-.09-1.87,.01-2.79,.26-2.32-.82-3.12-3.01-2.91-1.06,.1-2.13,.01-3.19,.01-41.39,0-82.77,0-124.16,0Zm-4.69-111.01c-39.1,0-78.21,0-117.31,0-2,0-3.93,.04-5.82,.95-12.91,6.26-25.85,12.43-38.77,18.66-2.63,1.27-2.67,1.37-.68,3.73,15.28,18.01,34.73,27.55,58.33,28.57,9.67,.42,19.11-.94,28.21-4.23,4.14-1.5,7.77-1.18,11.15,1.73,1.1,.95,2.37,1.72,3.58,2.53,23.16,15.52,48.58,21.58,76.22,17.86,18.26-2.46,34.85-9.27,49.61-20.31,3.67-2.75,7.24-3.28,11.54-1.75,12.27,4.35,24.9,5.36,37.73,3.28,19.54-3.17,35.73-12.34,48.48-27.51,2.25-2.67,2.69-2.36-1.08-4.18-12.08-5.82-24.22-11.53-36.28-17.41-2.7-1.32-5.37-1.95-8.39-1.94-38.84,.06-77.67,.04-116.51,.04Zm5.11-15.37c41.64,0,83.28,0,124.92,.01,2.41,0,4.79-.06,7.12-.74,5.02-1.46,8.2-5.28,8.29-10.44,.14-7.85,.15-15.7,0-23.54-.11-5.56-3.85-9.69-9.46-10.7-1.95-.35-3.97-.41-5.96-.41-83.28-.02-166.56-.02-249.84,0-1.86,0-3.74,.05-5.57,.32-5.95,.88-9.98,5.05-10.15,11-.21,7.71-.2,15.43,0,23.14,.15,5.58,3.55,9.33,8.99,10.77,2.22,.59,4.47,.6,6.73,.6,41.64,0,83.28,0,124.92,0Zm-.1,331.87c39.79,0,79.57,0,119.36,0,3.33,0,6.65-.03,9.96-.38,11.66-1.22,20.41-6.99,26.52-16.9,3.98-6.46,4.99-13.64,4.99-21.05,0-64.54,0-129.07,.03-193.61,0-4.27-.04-8.53-.7-12.73-1.17-7.45-4.58-13.79-9.89-19.15-.8-.81-1.41-.75-2.42-.33-2.68,1.11-2.15,3.35-2.15,5.42,0,73.45,0,146.9,0,220.36,0,2.67,0,5.33-.67,7.93-1.93,7.63-6.78,12.51-14.3,14.61-2.67,.74-5.52,.75-8.32,.75-81.57-.02-163.14-.01-244.71-.03-1.99,0-3.99-.12-5.96-.36-8.25-.98-14.45-6.45-16.67-14.48-.72-2.62-.68-5.26-.68-7.92,0-71.32,0-142.65,0-213.97,0-1.06-.1-2.14,.02-3.19,.19-1.72-.5-2.76-2.08-3.37-.86-.33-1.66-.84-2.49-1.25-2.77-1.35-2.78-1.36-4.63,1.35-4.53,6.62-5.99,14.06-5.99,21.95,.03,65.6,.02,131.2,0,196.8,0,3.2,.06,6.38,.58,9.55,2.27,13.83,10.05,23.08,23.12,27.97,4.83,1.8,9.88,2,14.94,2,40.72,.02,81.44,0,122.15,0Zm-.33-220.87c30.06,0,60.13,0,90.19,0,12.11,0,24.21,0,36.32,0,3.79,0,3.83-.03,3.84-3.61,.02-9.05,.02-18.09,0-27.14,0-3.43-.07-3.49-3.23-2.44-18.7,6.24-37.52,6.83-56.48,1.31-1.93-.56-3.44-.42-5.17,.77-17.06,11.77-35.92,18.78-56.54,21.03-14.95,1.63-29.74,.74-44.31-2.99-14.16-3.62-27.33-9.47-39.35-17.83-1.58-1.1-3.02-1.69-5.11-1.07-15.47,4.63-31.12,5.05-46.9,1.63-2.95-.64-3.03-.56-3.05,2.6-.04,7.58-.01,15.16-.01,22.75,0,5.89-.06,4.97,4.9,4.98,41.64,.02,83.27,.01,124.91,.01Z"/>
  <path class="cls-1" d="M238.32,330.74c-14.98,.44-27.65-11.64-28.04-26.75-.39-15.17,11.65-27.95,27.11-28.13,15.37-.17,27.37,11.59,27.87,26.99,.48,14.92-11.7,27.44-26.93,27.89Zm11.36-27.57c-.08-6.62-5.38-11.84-11.99-11.81-6.55,.03-11.91,5.38-11.95,11.93-.03,6.65,5.6,12.19,12.26,12.05,6.56-.14,11.76-5.56,11.68-12.16Z"/>
  <path class="cls-1" d="M139.52,229.77c12.5-.08,22.68,9.9,22.81,22.35,.13,12.54-10.22,23-22.71,22.95-12.36-.05-22.61-10.3-22.66-22.65-.05-12.38,10.1-22.57,22.56-22.65Zm.03,15.43c-3.85,.09-6.96,3.37-6.9,7.29,.06,3.9,3.28,7.05,7.16,6.98,3.87-.07,7.01-3.35,6.93-7.23-.08-3.87-3.4-7.13-7.18-7.04Z"/>
  <path class="cls-1" d="M103.36,315.22c4.16,.05,7.6,3.5,7.59,7.6-.01,4.04-3.56,7.6-7.63,7.65-4.23,.05-7.92-3.7-7.76-7.88,.16-4.18,3.58-7.42,7.8-7.36Z"/>
  <path class="cls-1" d="M301.52,230.18c-.07,4.19-3.5,7.6-7.63,7.57-4.01-.03-7.62-3.63-7.66-7.65-.05-4.22,3.67-7.82,7.94-7.67,4.21,.14,7.42,3.53,7.35,7.75Z"/>
  <path class="cls-1" d="M212.98,223.14c4.1,.01,7.59,3.49,7.62,7.6,.04,4.07-3.43,7.67-7.49,7.79-4.22,.12-7.82-3.52-7.75-7.85,.06-4.2,3.45-7.55,7.62-7.53Z"/>
  <path class="cls-1" d="M287.35,340.13c0,4.07-3.5,7.62-7.58,7.68-4.19,.07-7.96-3.74-7.81-7.89,.14-4.05,3.8-7.55,7.81-7.49,4.08,.07,7.59,3.62,7.58,7.69Z"/>
</svg>