<?xml version="1.0" encoding="UTF-8"?>
<svg id="Layer_1" data-name="Layer 1" xmlns="http://www.w3.org/2000/svg" viewBox="0 0 384 384">
  <defs>
    <style>
      .cls-1 {
        fill: #3a4c36;
      }
    </style>
  </defs>
  <path class="cls-1" d="M193.5,0c2.73,1.22,4.49,3.33,6.07,5.84,13.2,20.96,22.42,43.72,30.43,67.02,1.6,4.64-.34,8.82-4.36,10.12-4.12,1.33-7.91-.75-9.56-5.5-5.94-17.12-12.49-33.97-21-50.01-.9-1.7-2.16-3.21-3.25-4.81-.99,1.55-2.09,3.05-2.94,4.67-13.35,25.59-22.77,52.64-29.92,80.54-4.19,16.35-7.32,32.91-8.77,49.73-1.8,20.87-1.88,41.74,3.56,62.16,1.88,7.05,5.22,13.71,7.9,20.55,.63,1.61,1.56,3.18,1.8,4.85,.52,3.57-1.38,6.41-4.67,7.63-3.07,1.14-6.28,.22-8.31-2.54-.96-1.3-1.72-2.75-2.48-4.18-6.9-12.98-10.37-26.96-12.15-41.44-.27-2.23-.76-4.49-.65-6.71,.15-3.21-1.16-5.25-3.62-7.24-32.07-26.06-68.35-43.9-107.82-55.57-.24-.07-.48-.14-.73-.17-1.19-.16-2.39-.31-3.58-.46,.24,1.17,.34,2.39,.75,3.5,13.53,36.19,30.46,70.6,53.55,101.75,10.63,14.34,22.46,27.45,37.7,37.16,1.88,1.2,3.59,3.19,4.51,5.21,1.27,2.81-.18,6.23-2.7,7.92-2.77,1.86-5.69,1.94-8.42,.02-5.82-4.11-11.63-8.22-17.25-12.59-1.85-1.43-3.44-1.91-5.75-1.65-13.9,1.57-27.81,3-41.73,4.36-3.6,.35-7.24,.29-10.86,.51-.64,.04-1.24,.54-1.86,.83,.4,.46,.71,1.03,1.2,1.37,7.39,5.11,14.57,10.58,22.27,15.19,18.86,11.32,39.04,19.43,60.56,24.28,5.99,1.35,10.89,1.53,14.48-4.36,.95-1.55,2.55-2.73,3.94-3.99,3.73-3.38,7.96-3.42,10.98-.17,2.79,3.01,2.57,7.4-.78,10.71-8.49,8.39-15.9,17.61-21.96,27.9-1.65,2.8-3.2,5.65-4.73,8.51-.31,.58-.31,1.33-.45,2,.71-.1,1.46-.08,2.12-.32,10.81-3.92,21.37-8.42,31.33-14.2,8.93-5.18,17.25-11.07,23.26-19.71,1.46-2.1,3.62-3.07,6.12-3.08,10.75-.04,21.5-.16,32.25,.1,2,.05,4.72,1.12,5.84,2.65,7.68,10.54,18.19,17.45,29.54,23.1,8.25,4.11,16.9,7.4,25.4,11,.71,.3,1.6,.2,2.41,.29-.26-.69-.44-1.42-.78-2.07-6.45-12.52-14.34-24.01-24.33-33.99-.88-.88-1.82-1.72-2.67-2.64-3.04-3.33-3.1-7.44-.2-10.41,2.91-2.98,7.02-3.08,10.41-.04,2.41,2.17,4.89,4.37,6.81,6.95,2.16,2.91,4.63,3.12,7.83,2.52,14.18-2.68,27.82-7.05,41.02-12.8,15.4-6.72,29.87-15.06,43.27-25.24,.99-.76,1.99-1.51,2.92-2.35,.41-.37,.65-.95,.97-1.43-.55-.22-1.1-.59-1.66-.62-4.49-.29-8.99-.37-13.47-.8-13.3-1.29-26.59-2.66-39.87-4.14-1.93-.22-3.23,.25-4.73,1.4-5.66,4.32-11.41,8.52-17.23,12.62-3.77,2.65-8.21,1.93-10.6-1.46-2.27-3.21-1.49-7.53,1.89-10.31,.58-.48,1.18-.93,1.82-1.32,15.76-9.67,27.57-23.36,38.36-38.03,22.91-31.13,39.72-65.46,53.06-101.6,.29-.77,.32-1.64,.47-2.46-.94,.07-1.92-.02-2.81,.22-21.43,5.76-41.81,14.2-61.46,24.43-17.12,8.91-33.22,19.38-48.12,31.68-2.05,1.7-3.12,3.42-3.35,6.21-1.25,15.64-4.17,30.92-11,45.22-1.13,2.36-2.33,4.7-3.7,6.94-2.38,3.9-6.31,5.07-9.94,3.12-3.67-1.97-4.96-6.29-2.72-10.36,4.06-7.38,7.19-15.09,9.12-23.28,3.76-15.92,5.13-32.05,3.9-48.36-.67-8.96-1.59-17.91-2.47-26.86-.35-3.55,.57-6.45,3.75-8.33,2.5-1.48,6.03-1.4,8,.75,1.42,1.54,2.65,3.76,2.89,5.8,1.07,9.05,1.76,18.14,2.58,27.22,.06,.62,.05,1.25,.12,1.87,.32,2.95,.53,3.07,3.02,1.2,18.64-14.04,38.78-25.52,60.08-35.01,18.85-8.4,38.19-15.37,58.47-19.53,.73-.15,1.46-.31,2.2-.43,6.21-.96,7.85-.18,10.99,5.17v3.75c-.58,1.2-1.3,2.35-1.72,3.6-9.73,28.5-21.69,56-36.54,82.23-9.48,16.75-20.13,32.72-32.39,47.58-.6,.72-.94,1.66-1.4,2.5,.66,.22,1.31,.57,1.99,.65,19.83,2.4,39.72,4.18,59.71,3.65,5.01-.13,8.43,1.39,10.34,6.04v2.25c-1.6,2.19-2.94,4.63-4.82,6.54-19.39,19.72-42.62,33.63-67.91,44.32-11.4,4.82-23.16,8.56-35.27,11.13-1.99,.42-2.31,1.07-1.15,2.65,.44,.6,.81,1.26,1.21,1.89,6.25,9.96,11.53,20.41,15.67,31.43,1.15,3.06,1.09,5.92-1.21,8.37-2.29,2.44-5.07,2.75-8.25,1.76-22.83-7.11-45.11-15.39-64.65-29.65-.57-.42-1.29-.63-1.94-.94-.19,.79-.51,1.58-.55,2.37-.27,6.49-.72,12.98-.65,19.47,.05,4.79-1.53,8.21-5.99,10.15h-33.75c-4.06-2.38-5.44-5.9-5.33-10.6,.15-6.36-.35-12.73-.62-19.09-.03-.79-.4-1.56-.62-2.34-.65,.3-1.38,.5-1.95,.92-11.49,8.58-24.18,14.97-37.48,20.13-9.06,3.51-18.34,6.46-27.52,9.65-3.01,1.05-5.68,.48-7.89-1.82-2.25-2.35-2.26-5.14-1.32-8.04,.23-.71,.52-1.41,.85-2.07,5.19-10.22,10.39-20.44,15.59-30.66,.28-.55,.92-1.07,.91-1.59-.01-.62-.4-1.42-.89-1.78-.56-.41-1.41-.44-2.14-.6-30.14-6.83-57.44-19.86-82.23-38.13-8.92-6.57-17.59-13.55-24.12-22.72v-3.75c2.28-4.23,5.81-5.4,10.54-5.29,19.64,.45,39.18-1.11,58.66-3.59,.91-.12,1.79-.54,2.68-.82-.48-.84-.87-1.73-1.45-2.5-4.45-5.87-9.14-11.57-13.38-17.6-22.04-31.36-38.56-65.55-51.7-101.46C3.62,135.48,1.79,130.75,0,126c0-1.5,0-3,0-4.5,2.65-4.55,6.57-5.65,11.49-4.38,3.74,.97,7.57,1.6,11.31,2.61,39.5,10.62,75.81,27.89,108.74,52.22,.75,.56,1.69,.86,2.54,1.29,.15-.84,.37-1.68,.45-2.53,.76-8.71,1.14-17.47,2.3-26.13,3.14-23.44,8.71-46.34,16.11-68.8,7.95-24.13,17.42-47.6,31.01-69.19,1.54-2.45,3.85-4.41,5.81-6.59,1.25,0,2.5,0,3.75,0Zm6.49,354.44c.21,0,.41,0,.62,0,0-3.87-.07-7.75,.03-11.62,.05-1.73-.41-2.5-2.27-2.46-4.37,.09-8.75,.07-13.12,.02-1.64-.02-2.19,.7-2.14,2.27,.26,7.99,.51,15.98,.68,23.98,.04,1.98,.92,2.56,2.78,2.51,3.5-.09,7-.12,10.49,.01,2.06,.08,2.97-.62,2.94-2.72-.06-4-.02-7.99-.02-11.99Z"/>
  <path class="cls-1" d="M232.67,101.25c4.21-.05,7.32,2.99,7.34,7.18,.01,4.17-3.12,7.29-7.29,7.25-4.03-.03-7.05-3-7.15-7.02-.11-4.18,2.95-7.37,7.11-7.42Z"/>
</svg>